<svg xmlns="http://www.w3.org/2000/svg" width="44" height="44" viewBox="0 0 44 44"><circle cx="22" cy="22" r="21" fill="#fff"/><circle cx="22" cy="22" r="20.63" fill="none" stroke="#008660"/><path d="M17.7,31.66V12.52l8.37,5.68,5.74,3.89L26.07,26Z" fill="#008660"/><path d="M18.22,31.66V13.3c0-.25,0-.5,0-.75v0l-.8.46,2.13,1.44,4,2.7,2.26,1.53,2.53,1.72,3.15,2.14.06,0v-.91l-2.71,1.83-3,2L24,26.77l-4,2.69c-.85.57-1.7,1.14-2.54,1.72l0,0a.53.53,0,1,0,.54.91l2.12-1.44,4-2.7,2.25-1.54,2.54-1.72L32,22.59l.06,0a.54.54,0,0,0,.17-.74.58.58,0,0,0-.17-.18l-2.7-1.83-3-2L24.51,16.5l-4-2.69c-.85-.57-1.68-1.16-2.54-1.72l0,0a.53.53,0,0,0-.73.2.48.48,0,0,0-.07.26V30.88c0,.25,0,.5,0,.75v0a.52.52,0,0,0,.52.53.53.53,0,0,0,.53-.53Z" fill="#008660"/></svg>